# xmcd CD database file
#
# Track frame offsets:
#	150
#	36148
#	73165
#	103878
#	129028
#	146733
#	188985
#	208250
#	235940
#	265973
#	295325
#
# Disc length: 4102 seconds
#
# Revision: 0
# Processed by: cddbd v1.4PL0 Copyright (c) Steve Scherf et al.
# Submitted via: CDex 1.50Beta5
#
DISCID=b010040b
DTITLE=Don Sebesky - Joyful Noise
DYEAR=1999
DGENRE=Jazz
TTITLE0=Mood Indigo
TTITLE1=Creole Love Call
TTITLE2=Chelsea Bridge
TTITLE3=Caravan
TTITLE4=Warm Valley
TTITLE5=Take the Coltrane
TTITLE6=Satin Doll
TTITLE7=Joyful Noise Suite: Gladly
TTITLE8=Joyful Noise Suite: Sadly
TTITLE9=Joyful Noise Suite: Madly
TTITLE10=Ko-Ko
EXTD=YEAR: 1999
EXTT0=
EXTT1=
EXTT2=
EXTT3=
EXTT4=
EXTT5=
EXTT6=
EXTT7=
EXTT8=
EXTT9=
EXTT10=
PLAYORDER=
